<svg width="13" height="12" viewBox="0 0 13 12" fill="none" xmlns="http://www.w3.org/2000/svg">
<path fill-rule="evenodd" clip-rule="evenodd" d="M2.91339 0.728346C2.91339 1.12894 2.58563 1.45669 2.18504 1.45669H1.45669V10.1969H2.18504C2.58563 10.1969 2.91339 10.5246 2.91339 10.9252C2.91339 11.3258 2.58563 11.6535 2.18504 11.6535H0.728346C0.327756 11.6535 0 11.3258 0 10.9252V0.728346C0 0.327756 0.327756 0 0.728346 0H2.18504C2.58563 0 2.91339 0.327756 2.91339 0.728346ZM10.1996 2.49459L12.2492 5.40797C12.4313 5.66581 12.4254 6.01177 12.2361 6.26378L10.051 9.17717C9.90827 9.368 9.68904 9.46851 9.46762 9.46851C9.31613 9.46851 9.16245 9.42116 9.03134 9.32284C8.70941 9.08175 8.64459 8.62508 8.88567 8.30388L10.1974 6.55512H10.1967H4.36993C3.96788 6.55512 3.64158 6.22955 3.64158 5.82677C3.64158 5.424 3.96788 5.09843 4.36993 5.09843H10.1967C10.2087 5.09843 10.2199 5.10175 10.2311 5.10509C10.2403 5.10781 10.2495 5.11056 10.2593 5.11154L9.00804 3.33219C8.77642 3.0037 8.85581 2.54922 9.18502 2.3176C9.51351 2.08526 9.968 2.16538 10.1996 2.49459Z" fill="white"/>
</svg>
