<svg width="20" height="30" viewBox="0 0 20 30" fill="none" xmlns="http://www.w3.org/2000/svg">
<path fill-rule="evenodd" clip-rule="evenodd" d="M9.25 0C8.18272 0.00262472 7.56333 0.0175189 7.02972 0.102035C3.46394 0.666798 0.667361 3.46338 0.102599 7.02915C0 7.67692 0 8.4511 0 9.99944V18.0461C1.39861 14.8309 4.60343 12.5828 8.33333 12.5828H11.6667C15.3966 12.5828 18.6014 14.8309 20 18.0461V9.99944C20 8.4511 20 7.67693 19.8974 7.02915C19.3326 3.46338 16.5361 0.666798 12.9703 0.102036C12.4367 0.0175191 11.8173 0.00262489 10.75 6.66637e-08V8.33277C10.75 8.74699 10.4142 9.08277 10 9.08277C9.58579 9.08277 9.25 8.74699 9.25 8.33277V0ZM19.1566 22.8524C19.2151 22.4836 19.2369 22.0627 19.2451 21.3918C19.1007 17.3307 15.763 14.0828 11.6667 14.0828H8.33333C4.23702 14.0828 0.899294 17.3307 0.754871 21.3917C0.763058 22.0627 0.784947 22.4836 0.843364 22.8524C1.3573 26.0972 3.90219 28.6421 7.14704 29.1561C7.72182 29.2471 8.423 29.2494 10 29.2494C11.577 29.2494 12.2782 29.2471 12.853 29.1561C16.0978 28.6421 18.6427 26.0972 19.1566 22.8524Z" fill="url(#paint0_linear_2_491)"/>
<defs>
<linearGradient id="paint0_linear_2_491" x1="0" y1="14.6247" x2="20" y2="14.6247" gradientUnits="userSpaceOnUse">
<stop stop-color="#D31027"/>
<stop offset="1" stop-color="#EA384D"/>
</linearGradient>
</defs>
</svg>
