<svg width="11" height="11" viewBox="0 0 11 11" fill="none" xmlns="http://www.w3.org/2000/svg">
<path fill-rule="evenodd" clip-rule="evenodd" d="M0.583559 1.25955C0 2.06275 0 3.2085 0 5.5C0 7.7915 0 8.93725 0.583559 9.74045C0.772025 9.99986 1.00014 10.228 1.25955 10.4164C2.06275 11 3.2085 11 5.5 11C7.7915 11 8.93725 11 9.74045 10.4164C9.99986 10.228 10.228 9.99986 10.4164 9.74045C11 8.93725 11 7.7915 11 5.5C11 3.2085 11 2.06275 10.4164 1.25955C10.228 1.00014 9.99986 0.772025 9.74045 0.583559C8.93725 0 7.7915 0 5.5 0C3.2085 0 2.06275 0 1.25955 0.583559C1.00014 0.772025 0.772025 1.00014 0.583559 1.25955ZM5.95833 3.05556C5.95833 2.80242 5.75313 2.59722 5.5 2.59722C5.24687 2.59722 5.04167 2.80242 5.04167 3.05556V7.29435C5.03298 7.28758 5.02412 7.28057 5.01508 7.2733C4.81791 7.11497 4.58353 6.87947 4.23533 6.52814L3.38109 5.66625C3.2029 5.48646 2.9127 5.48517 2.73291 5.66335C2.55313 5.84154 2.55183 6.13174 2.73002 6.31153L3.60289 7.19223C3.92763 7.51989 4.19847 7.79317 4.44109 7.98802C4.69557 8.19239 4.96302 8.34784 5.28886 8.38938C5.35896 8.39831 5.42948 8.40278 5.5 8.40278C5.57052 8.40278 5.64104 8.39831 5.71113 8.38938C6.03698 8.34784 6.30443 8.19239 6.55891 7.98802C6.80153 7.79317 7.07236 7.5199 7.3971 7.19223L8.26998 6.31153C8.44817 6.13174 8.44687 5.84155 8.26709 5.66336C8.0873 5.48517 7.7971 5.48646 7.61891 5.66625L6.76467 6.52814C6.41646 6.87947 6.18208 7.11497 5.98492 7.2733C5.97588 7.28057 5.96702 7.28758 5.95833 7.29435V3.05556Z" fill="url(#paint0_linear_2_1216)"/>
<defs>
<linearGradient id="paint0_linear_2_1216" x1="0" y1="5.5" x2="11" y2="5.5" gradientUnits="userSpaceOnUse">
<stop stop-color="#D31027"/>
<stop offset="1" stop-color="#EA384D"/>
</linearGradient>
</defs>
</svg>
