<svg width="20" height="20" viewBox="0 0 20 20" fill="none" xmlns="http://www.w3.org/2000/svg">
<rect width="20" height="20" rx="10" fill="#E4354A"/>
<path d="M10 15C10.2833 15 10.5208 14.9042 10.7125 14.7125C10.9042 14.5208 11 14.2833 11 14C11 13.7167 10.9042 13.4792 10.7125 13.2875C10.5208 13.0958 10.2833 13 10 13C9.71667 13 9.47917 13.0958 9.2875 13.2875C9.09583 13.4792 9 13.7167 9 14C9 14.2833 9.09583 14.5208 9.2875 14.7125C9.47917 14.9042 9.71667 15 10 15ZM9 11H11V5H9V11Z" fill="white"/>
</svg>
