<svg width="14" height="15" viewBox="0 0 14 15" fill="none" xmlns="http://www.w3.org/2000/svg">
<path fill-rule="evenodd" clip-rule="evenodd" d="M8.74016 0.976562H11.6535C12.4569 0.976562 13.1102 1.62989 13.1102 2.43326V5.34664C13.1102 6.15001 12.4569 6.80333 11.6535 6.80333H8.74016C7.93679 6.80333 7.28346 6.15001 7.28346 5.34664V2.43326C7.28346 1.62989 7.93679 0.976562 8.74016 0.976562ZM1.45722 0.976682H4.3706C5.17397 0.976682 5.82729 1.63001 5.82729 2.43337V5.34676C5.82729 6.15013 5.17397 6.80345 4.3706 6.80345H1.45722C0.65385 6.80345 0.000522884 6.15013 0.000522884 5.34676V2.43337C0.000522884 1.63001 0.65385 0.976682 1.45722 0.976682ZM4.37008 8.26003H1.45669C0.653327 8.26003 0 8.91335 0 9.71672V12.6301C0 13.4335 0.653327 14.0868 1.45669 14.0868H4.37008C5.17345 14.0868 5.82677 13.4335 5.82677 12.6301V9.71672C5.82677 8.91335 5.17345 8.26003 4.37008 8.26003ZM8.74016 8.26003H11.6535C12.4569 8.26003 13.1102 8.91335 13.1102 9.71672V12.6301C13.1102 13.4335 12.4569 14.0868 11.6535 14.0868H8.74016C7.93679 14.0868 7.28346 13.4335 7.28346 12.6301V9.71672C7.28346 8.91335 7.93679 8.26003 8.74016 8.26003Z" fill="url(#paint0_linear_2_1239)"/>
<defs>
<linearGradient id="paint0_linear_2_1239" x1="0" y1="7.53168" x2="13.1102" y2="7.53168" gradientUnits="userSpaceOnUse">
<stop stop-color="#D31027"/>
<stop offset="1" stop-color="#EA384D"/>
</linearGradient>
</defs>
</svg>
