<svg width="39" height="27" viewBox="0 0 39 27" fill="none" xmlns="http://www.w3.org/2000/svg">
<path d="M13.6546 11.57C12.2485 10.1716 11.378 8.23513 11.378 6.09535C11.378 3.95556 12.2485 2.01909 13.6546 0.620716C12.845 0.223215 11.9344 0 10.9716 0C7.60526 0 4.87628 2.72898 4.87628 6.09535C4.87628 9.46171 7.60526 12.1907 10.9716 12.1907C11.9344 12.1907 12.845 11.9675 13.6546 11.57Z" fill="url(#paint0_linear_2_1926)"/>
<path d="M13.0034 6.09535C13.0034 2.72898 15.7324 0 19.0988 0C22.4651 0 25.1941 2.72898 25.1941 6.09535C25.1941 9.46171 22.4651 12.1907 19.0988 12.1907C15.7324 12.1907 13.0034 9.46171 13.0034 6.09535Z" fill="url(#paint1_linear_2_1926)"/>
<path d="M24.5429 0.620716C25.949 2.01909 26.8195 3.95556 26.8195 6.09535C26.8195 8.23513 25.949 10.1716 24.5429 11.57C25.3525 11.9675 26.2631 12.1907 27.2259 12.1907C30.5922 12.1907 33.3212 9.46171 33.3212 6.09535C33.3212 2.72898 30.5922 0 27.2259 0C26.2631 0 25.3525 0.223215 24.5429 0.620716Z" fill="url(#paint2_linear_2_1926)"/>
<path d="M8.12713 20.7242C8.12713 17.3578 10.8561 14.6288 14.2225 14.6288H23.975C27.3414 14.6288 30.0704 17.3578 30.0704 20.7242C30.0704 24.0905 27.3414 26.8195 23.975 26.8195H14.2225C10.8561 26.8195 8.12713 24.0905 8.12713 20.7242Z" fill="url(#paint3_linear_2_1926)"/>
<path d="M0 19.0988C0 15.7324 2.72898 13.0034 6.09535 13.0034H14.2225C9.95841 13.0034 6.5017 16.4601 6.5017 20.7242C6.5017 22.39 7.02928 23.9327 7.92647 25.1941H6.09535C2.72898 25.1941 0 22.4651 0 19.0988Z" fill="url(#paint4_linear_2_1926)"/>
<path d="M31.6958 20.7242C31.6958 22.39 31.1682 23.9327 30.271 25.1941H32.1022C35.4685 25.1941 38.1975 22.4651 38.1975 19.0988C38.1975 15.7324 35.4685 13.0034 32.1022 13.0034H23.975C28.2391 13.0034 31.6958 16.4601 31.6958 20.7242Z" fill="url(#paint5_linear_2_1926)"/>
<defs>
<linearGradient id="paint0_linear_2_1926" x1="0" y1="13.4098" x2="38.1975" y2="13.4098" gradientUnits="userSpaceOnUse">
<stop stop-color="#D31027"/>
<stop offset="1" stop-color="#EA384D"/>
</linearGradient>
<linearGradient id="paint1_linear_2_1926" x1="0" y1="13.4098" x2="38.1975" y2="13.4098" gradientUnits="userSpaceOnUse">
<stop stop-color="#D31027"/>
<stop offset="1" stop-color="#EA384D"/>
</linearGradient>
<linearGradient id="paint2_linear_2_1926" x1="0" y1="13.4098" x2="38.1975" y2="13.4098" gradientUnits="userSpaceOnUse">
<stop stop-color="#D31027"/>
<stop offset="1" stop-color="#EA384D"/>
</linearGradient>
<linearGradient id="paint3_linear_2_1926" x1="0" y1="13.4098" x2="38.1975" y2="13.4098" gradientUnits="userSpaceOnUse">
<stop stop-color="#D31027"/>
<stop offset="1" stop-color="#EA384D"/>
</linearGradient>
<linearGradient id="paint4_linear_2_1926" x1="0" y1="13.4098" x2="38.1975" y2="13.4098" gradientUnits="userSpaceOnUse">
<stop stop-color="#D31027"/>
<stop offset="1" stop-color="#EA384D"/>
</linearGradient>
<linearGradient id="paint5_linear_2_1926" x1="0" y1="13.4098" x2="38.1975" y2="13.4098" gradientUnits="userSpaceOnUse">
<stop stop-color="#D31027"/>
<stop offset="1" stop-color="#EA384D"/>
</linearGradient>
</defs>
</svg>
