<svg width="1448" height="1031" viewBox="0 0 1448 1031" fill="none" xmlns="http://www.w3.org/2000/svg">
<path opacity="0.05" d="M1 52.4869H52.6827M1 52.4869V103.974M1 52.4869V1M52.6827 52.4869V103.974M52.6827 52.4869H104.366M52.6827 52.4869V1M1 103.974H52.6827M1 103.974V155.461H52.6827M1 103.974H104.366M1 103.974V1M1 103.974V206.948H104.366M1 1H52.6827M1 1H104.366M52.6827 103.974V155.461M52.6827 103.974H104.366M104.366 52.4869V103.974M104.366 52.4869H156.048M104.366 52.4869V1M52.6827 1H104.366M52.6827 155.461H104.366M104.366 103.974V155.461M104.366 103.974H156.048M104.366 103.974V1M104.366 103.974V206.948M104.366 103.974H207.731M104.366 206.948H207.731V103.974M104.366 155.461H156.048V103.974M52.6827 155.276H1V206.763M52.6827 155.276V206.763M52.6827 155.276H104.366M1 206.763H52.6827M1 206.763V258.25M1 206.763H104.366M1 206.763V309.737M52.6827 206.763V258.25M52.6827 206.763H104.366M104.366 155.276V206.763M104.366 155.276H156.048V206.763M52.6827 258.25H1M52.6827 258.25V309.737M52.6827 258.25H104.366M104.366 206.763V258.25M104.366 206.763H156.048M104.366 206.763V309.737M104.366 206.763H207.731V309.737M1 258.25V309.737M1 309.737H52.6827M1 309.737V361.224H52.6827M1 309.737H104.366M1 309.737V412.711H104.366M52.6827 309.737V361.224M52.6827 309.737H104.366M104.366 258.25V309.737M104.366 258.25H156.048M52.6827 361.224H104.366M104.366 309.737V361.224M104.366 309.737H156.048M104.366 309.737V412.711M104.366 309.737H207.731M104.366 412.711H207.731V309.737M104.366 361.224H156.048V309.737M52.6827 361.039H1V412.526M52.6827 361.039V412.526M52.6827 361.039H104.366M1 412.526H52.6827M1 412.526V464.013M1 412.526H104.366M1 412.526V515.5M52.6827 412.526V464.013M52.6827 412.526H104.366M104.366 361.039V412.526M104.366 361.039H156.048V412.526M52.6827 464.013H1M52.6827 464.013V515.5M52.6827 464.013H104.366M104.366 412.526V464.013M104.366 412.526H156.048M104.366 412.526V515.5M104.366 412.526H207.731V515.5M1 464.013V515.5M1 515.5H52.6827M1 515.5V566.987M1 515.5H104.366M1 515.5V618.474M52.6827 515.5V566.987M52.6827 515.5H104.366M104.366 464.013V515.5M104.366 464.013H156.048M52.6827 566.987H1M52.6827 566.987V618.474M52.6827 566.987H104.366M104.366 515.5V566.987M104.366 515.5H156.048M104.366 515.5V618.474M104.366 515.5H207.731M1 566.987V618.474M1 618.474H52.6827M1 618.474H104.366M52.6827 618.474H104.366M104.366 566.987V618.474M104.366 566.987H156.048M104.366 618.474H156.048V566.987M104.366 618.474H207.731V515.5M1 618.289H52.6827M1 618.289V669.776M1 618.289H104.366M1 618.289V721.263M52.6827 618.289V669.776M52.6827 618.289H104.366M1 669.776H52.6827M1 669.776V721.263M104.366 618.289V669.776M104.366 618.289H156.048V669.776M104.366 618.289V721.263M104.366 618.289H207.731V721.263M1 721.263H52.6827M1 721.263V772.75M1 721.263H104.366M1 721.263V824.237M52.6827 669.776V721.263M52.6827 669.776H104.366M52.6827 721.263V772.75M52.6827 721.263H104.366M104.366 669.776V721.263M104.366 669.776H156.048M52.6827 772.75H1M52.6827 772.75V824.237M52.6827 772.75H104.366M104.366 721.263V772.75M104.366 721.263H156.048M104.366 721.263V824.237M104.366 721.263H207.731M1 772.75V824.237M1 824.237H52.6827M1 824.237H104.366M52.6827 824.237H104.366M104.366 772.75V824.237M104.366 772.75H156.048M104.366 824.237H156.048V772.75M104.366 824.237H207.731V721.263M1 824.052H52.6827M1 824.052V875.539M1 824.052H104.366M1 824.052V927.026M52.6827 824.052V875.539M52.6827 824.052H104.366M1 875.539H52.6827M1 875.539V927.026M104.366 824.052V875.539M104.366 824.052H156.048V875.539M104.366 824.052V927.026M104.366 824.052H207.731V927.026M1 927.026H52.6827M1 927.026V978.512H52.6827M1 927.026H104.366M1 927.026V1030H104.366M52.6827 875.539V927.026M52.6827 875.539H104.366M52.6827 927.026V978.512M52.6827 927.026H104.366M104.366 875.539V927.026M104.366 875.539H156.048M52.6827 978.512H104.366M104.366 927.026V978.512M104.366 927.026H156.048M104.366 927.026V1030M104.366 927.026H207.731M104.366 1030H207.731V927.026M104.366 978.512H156.048V927.026M156.048 52.4869V103.974M156.048 52.4869V1H104.366M104.366 1H207.731V103.974M156.048 206.763V258.25M156.048 258.25V309.737M156.048 412.526V464.013M156.048 464.013V515.5M156.048 515.5V566.987M156.048 669.776V721.263M156.048 721.263V772.75M156.048 875.539V927.026M155.862 52.4869H207.545M155.862 52.4869V103.974M155.862 52.4869V1H207.545M207.545 52.4869V103.974M207.545 52.4869H259.228M207.545 52.4869V1M155.862 103.974H207.545M155.862 103.974V155.461H207.545M207.545 1V103.974M207.545 1H259.228M207.545 1H310.91M207.545 103.974V155.461M207.545 103.974H259.228M207.545 103.974H310.91M207.545 103.974V206.948H310.91M259.228 52.4869V103.974M259.228 52.4869H310.91M259.228 52.4869V1M207.545 155.461H259.228M259.228 103.974V155.461M259.228 103.974H310.91M310.91 103.974V52.4869M310.91 103.974V155.461M310.91 103.974H362.593M310.91 103.974V1M310.91 103.974V206.948M310.91 103.974H414.276M310.91 206.948H414.276V103.974M259.228 155.461H310.91M207.545 155.276H155.862V206.763M207.545 155.276V206.763M207.545 155.276H259.228M155.862 206.763H207.545M155.862 206.763V258.25M207.545 206.763V258.25M207.545 206.763H259.228M207.545 206.763H310.91M207.545 206.763V309.737M259.228 155.276V206.763M259.228 155.276H310.91M207.545 258.25H155.862M207.545 258.25V309.737M207.545 258.25H259.228M259.228 206.763V258.25M259.228 206.763H310.91M310.91 206.763V155.276M310.91 206.763V258.25M310.91 206.763H362.593M310.91 206.763V309.737M310.91 206.763H414.276V309.737M207.545 309.737H155.862M207.545 309.737V361.224M207.545 309.737H259.228M207.545 309.737H310.91M207.545 309.737V412.711H310.91M155.862 258.25V309.737M259.228 258.25V309.737M259.228 258.25H310.91M155.862 309.737V361.224H207.545M207.545 361.224H259.228M259.228 309.737V361.224M259.228 309.737H310.91M310.91 309.737V258.25M310.91 309.737V361.224M310.91 309.737H362.593M310.91 309.737V412.711M310.91 309.737H414.276M310.91 412.711H414.276V309.737M259.228 361.224H310.91M207.545 361.039H155.862V412.526M207.545 361.039V412.526M207.545 361.039H259.228M155.862 412.526H207.545M155.862 412.526V464.013M207.545 412.526V464.013M207.545 412.526H259.228M207.545 412.526H310.91M207.545 412.526V515.5M259.228 361.039V412.526M259.228 361.039H310.91M207.545 464.013H155.862M207.545 464.013V515.5M207.545 464.013H259.228M259.228 412.526V464.013M259.228 412.526H310.91M310.91 412.526V361.039M310.91 412.526V464.013M310.91 412.526H362.593M310.91 412.526V515.5M310.91 412.526H414.276V515.5M207.545 515.5H155.862M207.545 515.5V566.987M207.545 515.5H259.228M207.545 515.5H310.91M207.545 515.5V618.474M155.862 464.013V515.5M259.228 464.013V515.5M259.228 464.013H310.91M155.862 515.5V566.987M207.545 566.987H155.862M207.545 566.987V618.474M207.545 566.987H259.228M259.228 515.5V566.987M259.228 515.5H310.91M310.91 515.5V464.013M310.91 515.5V566.987M310.91 515.5H362.593M310.91 515.5V618.474M310.91 515.5H414.276M207.545 618.474H155.862V566.987M207.545 618.474H259.228M207.545 618.474H310.91M259.228 566.987V618.474M259.228 566.987H310.91M259.228 618.474H310.91M310.91 618.474V566.987M310.91 618.474H362.593V566.987M310.91 618.474H414.276V515.5M207.545 618.289H155.862V669.776M207.545 618.289V669.776M207.545 618.289H259.228M207.545 618.289H310.91M207.545 618.289V721.263M155.862 669.776H207.545M155.862 669.776V721.263M207.545 669.776V721.263M207.545 669.776H259.228M259.228 618.289V669.776M259.228 618.289H310.91M310.91 618.289V669.776M310.91 618.289H362.593V669.776M310.91 618.289V721.263M310.91 618.289H414.276V721.263M207.545 721.263H155.862M207.545 721.263V772.75M207.545 721.263H259.228M207.545 721.263H310.91M207.545 721.263V824.237M259.228 669.776V721.263M259.228 669.776H310.91M155.862 721.263V772.75M207.545 772.75H155.862M207.545 772.75V824.237M207.545 772.75H259.228M259.228 721.263V772.75M259.228 721.263H310.91M310.91 721.263V669.776M310.91 721.263V772.75M310.91 721.263H362.593M310.91 721.263V824.237M310.91 721.263H414.276M207.545 824.237H155.862V772.75M207.545 824.237H259.228M207.545 824.237H310.91M259.228 772.75V824.237M259.228 772.75H310.91M259.228 824.237H310.91M310.91 824.237V772.75M310.91 824.237H362.593V772.75M310.91 824.237H414.276V721.263M207.545 824.052H155.862V875.539M207.545 824.052V875.539M207.545 824.052H259.228M207.545 824.052H310.91M207.545 824.052V927.026M155.862 875.539H207.545M155.862 875.539V927.026M207.545 875.539V927.026M207.545 875.539H259.228M259.228 824.052V875.539M259.228 824.052H310.91M310.91 824.052V875.539M310.91 824.052H362.593V875.539M310.91 824.052V927.026M310.91 824.052H414.276V927.026M207.545 927.026H155.862M207.545 927.026V978.512M207.545 927.026H259.228M207.545 927.026H310.91M207.545 927.026V1030H310.91M259.228 875.539V927.026M259.228 875.539H310.91M155.862 927.026V978.512H207.545M207.545 978.512H259.228M259.228 927.026V978.512M259.228 927.026H310.91M310.91 927.026V875.539M310.91 927.026V978.512M310.91 927.026H362.593M310.91 927.026V1030M310.91 927.026H414.276M310.91 1030H414.276V927.026M259.228 978.512H310.91M310.91 52.4869H362.593M310.91 52.4869V1M259.228 1H310.91M310.91 155.461H362.593V103.974M310.91 155.276H362.593V206.763M310.91 258.25H362.593M310.91 361.224H362.593V309.737M310.91 361.039H362.593V412.526M310.91 464.013H362.593M310.91 566.987H362.593M310.91 669.776H362.593M310.91 772.75H362.593M310.91 875.539H362.593M310.91 978.512H362.593V927.026M362.593 52.4869V103.974M362.593 52.4869V1H310.91M310.91 1H414.276V103.974M362.593 206.763V258.25M362.593 258.25V309.737M362.593 412.526V464.013M362.593 464.013V515.5M362.593 515.5V566.987M362.593 669.776V721.263M362.593 721.263V772.75M362.593 875.539V927.026M362.407 52.4869H414.09M362.407 52.4869V103.974M362.407 52.4869V1H414.09M414.09 52.4869V103.974M414.09 52.4869H465.772M414.09 52.4869V1M362.407 103.974H414.09M362.407 103.974V155.461H414.09M414.09 1V103.974M414.09 1H465.772M414.09 1H517.455M414.09 103.974V155.461M414.09 103.974H465.772M414.09 103.974H517.455M414.09 103.974V206.948H517.455M465.772 52.4869V103.974M465.772 52.4869H517.455M465.772 52.4869V1M414.09 155.461H465.772M465.772 103.974V155.461M465.772 103.974H517.455M517.455 103.974V52.4869M517.455 103.974V155.461M517.455 103.974H569.138M517.455 103.974V1M517.455 103.974V206.948M517.455 103.974H620.82M517.455 206.948H620.82V103.974M465.772 155.461H517.455M414.09 155.276H362.407V206.763M414.09 155.276V206.763M414.09 155.276H465.772M362.407 206.763H414.09M362.407 206.763V258.25M414.09 206.763V258.25M414.09 206.763H465.772M414.09 206.763H517.455M414.09 206.763V309.737M465.772 155.276V206.763M465.772 155.276H517.455M414.09 258.25H362.407M414.09 258.25V309.737M414.09 258.25H465.772M465.772 206.763V258.25M465.772 206.763H517.455M517.455 206.763V155.276M517.455 206.763V258.25M517.455 206.763H569.138M517.455 206.763V309.737M517.455 206.763H620.82M414.09 309.737H362.407M414.09 309.737V361.224M414.09 309.737H465.772M414.09 309.737H517.455M414.09 309.737V412.711H517.455M362.407 258.25V309.737M465.772 258.25V309.737M465.772 258.25H517.455M362.407 309.737V361.224H414.09M414.09 361.224H465.772M465.772 309.737V361.224M465.772 309.737H517.455M517.455 309.737V258.25M517.455 309.737V361.224M517.455 309.737H569.138M517.455 309.737V412.711M517.455 309.737H620.82M517.455 412.711H620.82V309.737M465.772 361.224H517.455M414.09 361.039H362.407V412.526M414.09 361.039V412.526M414.09 361.039H465.772M362.407 412.526H414.09M362.407 412.526V464.013M414.09 412.526V464.013M414.09 412.526H465.772M414.09 412.526H517.455M414.09 412.526V515.5M465.772 361.039V412.526M465.772 361.039H517.455M414.09 464.013H362.407M414.09 464.013V515.5M414.09 464.013H465.772M465.772 412.526V464.013M465.772 412.526H517.455M517.455 412.526V361.039M517.455 412.526V464.013M517.455 412.526H569.138M517.455 412.526V515.5M517.455 412.526H620.82M414.09 515.5H362.407M414.09 515.5V566.987M414.09 515.5H465.772M414.09 515.5H517.455M414.09 515.5V618.474M362.407 464.013V515.5M465.772 464.013V515.5M465.772 464.013H517.455M362.407 515.5V566.987M414.09 566.987H362.407M414.09 566.987V618.474M414.09 566.987H465.772M465.772 515.5V566.987M465.772 515.5H517.455M517.455 515.5V464.013M517.455 515.5V566.987M517.455 515.5H569.138M517.455 515.5V618.474M517.455 515.5H620.82M414.09 618.474H362.407V566.987M414.09 618.474H465.772M414.09 618.474H517.455M465.772 566.987V618.474M465.772 566.987H517.455M465.772 618.474H517.455M517.455 618.474V566.987M517.455 618.474H569.138M517.455 618.474H620.82M414.09 618.289H362.407V669.776M414.09 618.289V669.776M414.09 618.289H465.772M414.09 618.289H517.455M414.09 618.289V721.263M362.407 669.776H414.09M362.407 669.776V721.263M414.09 669.776V721.263M414.09 669.776H465.772M465.772 618.289V669.776M465.772 618.289H517.455M517.455 618.289V669.776M517.455 618.289H569.138M517.455 618.289V721.263M517.455 618.289H620.82M414.09 721.263H362.407M414.09 721.263V772.75M414.09 721.263H465.772M414.09 721.263H517.455M414.09 721.263V824.237M465.772 669.776V721.263M465.772 669.776H517.455M362.407 721.263V772.75M414.09 772.75H362.407M414.09 772.75V824.237M414.09 772.75H465.772M465.772 721.263V772.75M465.772 721.263H517.455M517.455 721.263V669.776M517.455 721.263V772.75M517.455 721.263H569.138M517.455 721.263V824.237M517.455 721.263H620.82M414.09 824.237H362.407V772.75M414.09 824.237H465.772M414.09 824.237H517.455M465.772 772.75V824.237M465.772 772.75H517.455M465.772 824.237H517.455M517.455 824.237V772.75M517.455 824.237H569.138M517.455 824.237H620.82M414.09 824.052H362.407V875.539M414.09 824.052V875.539M414.09 824.052H465.772M414.09 824.052H517.455M414.09 824.052V927.026M362.407 875.539H414.09M362.407 875.539V927.026M414.09 875.539V927.026M414.09 875.539H465.772M465.772 824.052V875.539M465.772 824.052H517.455M517.455 824.052V875.539M517.455 824.052H569.138M517.455 824.052V927.026M517.455 824.052H620.82M414.09 927.026H362.407M414.09 927.026V978.512M414.09 927.026H465.772M414.09 927.026H517.455M414.09 927.026V1030H517.455M465.772 875.539V927.026M465.772 875.539H517.455M362.407 927.026V978.512H414.09M414.09 978.512H465.772M465.772 927.026V978.512M465.772 927.026H517.455M517.455 927.026V875.539M517.455 927.026V978.512M517.455 927.026H569.138M517.455 927.026V1030M517.455 927.026H620.82M517.455 1030H620.82V927.026M465.772 978.512H517.455M517.455 52.4869H569.138M517.455 52.4869V1M465.772 1H517.455M517.455 155.461H569.138M517.455 155.276H569.138M517.455 258.25H569.138M517.455 361.224H569.138M517.455 361.039H569.138M517.455 464.013H569.138M517.455 566.987H569.138M517.455 669.776H569.138M517.455 772.75H569.138M517.455 875.539H569.138M517.455 978.512H569.138M569.138 52.4869V103.974M569.138 52.4869H620.82M569.138 52.4869V1M517.455 1H569.138M517.455 1H620.82M569.138 103.974V155.461M569.138 103.974H620.82M620.82 103.974V155.461H569.138M620.82 103.974V52.4869M620.82 103.974V1M569.138 155.276V206.763M569.138 155.276H620.82V206.763M569.138 206.763V258.25M569.138 206.763H620.82M620.82 206.763V258.25M620.82 206.763V309.737M569.138 258.25V309.737M569.138 258.25H620.82M569.138 309.737V361.224M569.138 309.737H620.82M620.82 309.737V361.224H569.138M620.82 309.737V258.25M569.138 361.039V412.526M569.138 361.039H620.82V412.526M569.138 412.526V464.013M569.138 412.526H620.82M620.82 412.526V464.013M620.82 412.526V515.5M569.138 464.013V515.5M569.138 464.013H620.82M569.138 515.5V566.987M569.138 515.5H620.82M620.82 515.5V464.013M620.82 515.5V566.987M620.82 515.5V618.474M569.138 566.987V618.474M569.138 566.987H620.82M569.138 618.474H620.82M620.82 618.474V566.987M569.138 618.289V669.776M569.138 618.289H620.82M620.82 618.289V669.776M620.82 618.289V721.263M569.138 669.776V721.263M569.138 669.776H620.82M569.138 721.263V772.75M569.138 721.263H620.82M620.82 721.263V669.776M620.82 721.263V772.75M620.82 721.263V824.237M569.138 772.75V824.237M569.138 772.75H620.82M569.138 824.237H620.82M620.82 824.237V772.75M569.138 824.052V875.539M569.138 824.052H620.82M620.82 824.052V875.539M620.82 824.052V927.026M569.138 875.539V927.026M569.138 875.539H620.82M569.138 927.026V978.512M569.138 927.026H620.82M620.82 927.026V978.512H569.138M620.82 927.026V875.539M620.82 52.4869V1M569.138 1H620.82M620.634 52.4869H672.318M620.634 52.4869V103.974M620.634 52.4869V1M672.318 52.4869V103.974M672.318 52.4869H724M672.318 52.4869V1M620.634 103.974H672.318M620.634 103.974V155.461H672.318M620.634 103.974H724M620.634 103.974V1M620.634 103.974V206.948H724M620.634 1H672.318M620.634 1H724M672.318 103.974V155.461M672.318 103.974H724M724 52.4869V103.974M724 52.4869H775.679M724 52.4869V1M672.318 1H724M672.318 155.461H724M724 103.974V155.461M724 103.974H775.679M724 103.974V1M724 103.974V206.948M724 103.974H827.366M724 206.948H827.366V103.974M724 155.461H775.679M672.318 155.276H620.634V206.763M672.318 155.276V206.763M672.318 155.276H724M620.634 206.763H672.318M620.634 206.763V258.25M620.634 206.763H724M620.634 206.763V309.737M672.318 206.763V258.25M672.318 206.763H724M724 155.276V206.763M724 155.276H775.679M672.318 258.25H620.634M672.318 258.25V309.737M672.318 258.25H724M724 206.763V258.25M724 206.763H775.679M724 206.763V309.737M724 206.763H827.366M620.634 258.25V309.737M620.634 309.737H672.318M620.634 309.737V361.224H672.318M620.634 309.737H724M620.634 309.737V412.711H724M672.318 309.737V361.224M672.318 309.737H724M724 258.25V309.737M724 258.25H775.679M672.318 361.224H724M724 309.737V361.224M724 309.737H775.679M724 309.737V412.711M724 309.737H827.366M724 412.711H827.366V309.737M724 361.224H775.679M672.318 361.039H620.634V412.526M672.318 361.039V412.526M672.318 361.039H724M620.634 412.526H672.318M620.634 412.526V464.013M620.634 412.526H724M620.634 412.526V515.5M672.318 412.526V464.013M672.318 412.526H724M724 361.039V412.526M724 361.039H775.679M672.318 464.013H620.634M672.318 464.013V515.5M672.318 464.013H724M724 412.526V464.013M724 412.526H775.679M724 412.526V515.5M724 412.526H827.366M620.634 464.013V515.5M620.634 515.5H672.318M620.634 515.5V566.987M620.634 515.5H724M620.634 515.5V618.474M672.318 515.5V566.987M672.318 515.5H724M724 464.013V515.5M724 464.013H775.679M672.318 566.987H620.634M672.318 566.987V618.474M672.318 566.987H724M724 515.5V566.987M724 515.5H775.679M724 515.5V618.474M724 515.5H827.366M620.634 566.987V618.474M620.634 618.474H672.318M620.634 618.474H724M672.318 618.474H724M724 566.987V618.474M724 566.987H775.679M724 618.474H775.679M724 618.474H827.366M620.634 618.289H672.318M620.634 618.289V669.776M620.634 618.289H724M620.634 618.289V721.263M672.318 618.289V669.776M672.318 618.289H724M620.634 669.776H672.318M620.634 669.776V721.263M724 618.289V669.776M724 618.289H775.679M724 618.289V721.263M724 618.289H827.366M620.634 721.263H672.318M620.634 721.263V772.75M620.634 721.263H724M620.634 721.263V824.237M672.318 669.776V721.263M672.318 669.776H724M672.318 721.263V772.75M672.318 721.263H724M724 669.776V721.263M724 669.776H775.679M672.318 772.75H620.634M672.318 772.75V824.237M672.318 772.75H724M724 721.263V772.75M724 721.263H775.679M724 721.263V824.237M724 721.263H827.366M620.634 772.75V824.237M620.634 824.237H672.318M620.634 824.237H724M672.318 824.237H724M724 772.75V824.237M724 772.75H775.679M724 824.237H775.679M724 824.237H827.366M620.634 824.052H672.318M620.634 824.052V875.539M620.634 824.052H724M620.634 824.052V927.026M672.318 824.052V875.539M672.318 824.052H724M620.634 875.539H672.318M620.634 875.539V927.026M724 824.052V875.539M724 824.052H775.679M724 824.052V927.026M724 824.052H827.366M620.634 927.026H672.318M620.634 927.026V978.512H672.318M620.634 927.026H724M620.634 927.026V1030H724M672.318 875.539V927.026M672.318 875.539H724M672.318 927.026V978.512M672.318 927.026H724M724 875.539V927.026M724 875.539H775.679M672.318 978.512H724M724 927.026V978.512M724 927.026H775.679M724 927.026V1030M724 927.026H827.366M724 1030H827.366V927.026M724 978.512H775.679M775.679 52.4869V103.974M775.679 52.4869H827.366M775.679 52.4869V1M724 1H775.679M724 1H827.366M775.679 103.974V155.461M775.679 103.974H827.366M827.366 103.974V155.461H775.679M827.366 103.974V52.4869M827.366 103.974V1M775.679 155.276V206.763M775.679 155.276H827.366V206.763M775.679 206.763V258.25M775.679 206.763H827.366M827.366 206.763V258.25M827.366 206.763V309.737M775.679 258.25V309.737M775.679 258.25H827.366M775.679 309.737V361.224M775.679 309.737H827.366M827.366 309.737V361.224H775.679M827.366 309.737V258.25M775.679 361.039V412.526M775.679 361.039H827.366V412.526M775.679 412.526V464.013M775.679 412.526H827.366M827.366 412.526V464.013M827.366 412.526V515.5M775.679 464.013V515.5M775.679 464.013H827.366M775.679 515.5V566.987M775.679 515.5H827.366M827.366 515.5V464.013M827.366 515.5V566.987M827.366 515.5V618.474M775.679 566.987V618.474M775.679 566.987H827.366M775.679 618.474H827.366M827.366 618.474V566.987M775.679 618.289V669.776M775.679 618.289H827.366M827.366 618.289V669.776M827.366 618.289V721.263M775.679 669.776V721.263M775.679 669.776H827.366M775.679 721.263V772.75M775.679 721.263H827.366M827.366 721.263V669.776M827.366 721.263V772.75M827.366 721.263V824.237M775.679 772.75V824.237M775.679 772.75H827.366M775.679 824.237H827.366M827.366 824.237V772.75M775.679 824.052V875.539M775.679 824.052H827.366M827.366 824.052V875.539M827.366 824.052V927.026M775.679 875.539V927.026M775.679 875.539H827.366M775.679 927.026V978.512M775.679 927.026H827.366M827.366 927.026V978.512H775.679M827.366 927.026V875.539M827.366 52.4869V1M775.679 1H827.366M827.178 52.4869H878.865M827.178 52.4869V103.974M827.178 52.4869V1M878.865 52.4869V103.974M878.865 52.4869H930.545M878.865 52.4869V1M827.178 103.974H878.865M827.178 103.974V155.461H878.865M827.178 103.974H930.545M827.178 103.974V1M827.178 103.974V206.948H930.545M827.178 1H878.865M827.178 1H930.545M878.865 103.974V155.461M878.865 103.974H930.545M930.545 52.4869V103.974M930.545 52.4869H982.224M930.545 52.4869V1M878.865 1H930.545M878.865 155.461H930.545M930.545 103.974V155.461M930.545 103.974H982.224M930.545 103.974V1M930.545 103.974V206.948M930.545 103.974H1033.91M930.545 206.948H1033.91M930.545 155.461H982.224M878.865 155.276H827.178V206.763M878.865 155.276V206.763M878.865 155.276H930.545M827.178 206.763H878.865M827.178 206.763V258.25M827.178 206.763H930.545M827.178 206.763V309.737M878.865 206.763V258.25M878.865 206.763H930.545M930.545 155.276V206.763M930.545 155.276H982.224M878.865 258.25H827.178M878.865 258.25V309.737M878.865 258.25H930.545M930.545 206.763V258.25M930.545 206.763H982.224M930.545 206.763V309.737M930.545 206.763H1033.91M827.178 258.25V309.737M827.178 309.737H878.865M827.178 309.737V361.224H878.865M827.178 309.737H930.545M827.178 309.737V412.711H930.545M878.865 309.737V361.224M878.865 309.737H930.545M930.545 258.25V309.737M930.545 258.25H982.224M878.865 361.224H930.545M930.545 309.737V361.224M930.545 309.737H982.224M930.545 309.737V412.711M930.545 309.737H1033.91M930.545 412.711H1033.91M930.545 361.224H982.224M878.865 361.039H827.178V412.526M878.865 361.039V412.526M878.865 361.039H930.545M827.178 412.526H878.865M827.178 412.526V464.013M827.178 412.526H930.545M827.178 412.526V515.5M878.865 412.526V464.013M878.865 412.526H930.545M930.545 361.039V412.526M930.545 361.039H982.224M878.865 464.013H827.178M878.865 464.013V515.5M878.865 464.013H930.545M930.545 412.526V464.013M930.545 412.526H982.224M930.545 412.526V515.5M930.545 412.526H1033.91M827.178 464.013V515.5M827.178 515.5H878.865M827.178 515.5V566.987M827.178 515.5H930.545M827.178 515.5V618.474M878.865 515.5V566.987M878.865 515.5H930.545M930.545 464.013V515.5M930.545 464.013H982.224M878.865 566.987H827.178M878.865 566.987V618.474M878.865 566.987H930.545M930.545 515.5V566.987M930.545 515.5H982.224M930.545 515.5V618.474M930.545 515.5H1033.91M827.178 566.987V618.474M827.178 618.474H878.865M827.178 618.474H930.545M878.865 618.474H930.545M930.545 566.987V618.474M930.545 566.987H982.224M930.545 618.474H982.224M930.545 618.474H1033.91M827.178 618.289H878.865M827.178 618.289V669.776M827.178 618.289H930.545M827.178 618.289V721.263M878.865 618.289V669.776M878.865 618.289H930.545M827.178 669.776H878.865M827.178 669.776V721.263M930.545 618.289V669.776M930.545 618.289H982.224M930.545 618.289V721.263M930.545 618.289H1033.91M827.178 721.263H878.865M827.178 721.263V772.75M827.178 721.263H930.545M827.178 721.263V824.237M878.865 669.776V721.263M878.865 669.776H930.545M878.865 721.263V772.75M878.865 721.263H930.545M930.545 669.776V721.263M930.545 669.776H982.224M878.865 772.75H827.178M878.865 772.75V824.237M878.865 772.75H930.545M930.545 721.263V772.75M930.545 721.263H982.224M930.545 721.263V824.237M930.545 721.263H1033.91M827.178 772.75V824.237M827.178 824.237H878.865M827.178 824.237H930.545M878.865 824.237H930.545M930.545 772.75V824.237M930.545 772.75H982.224M930.545 824.237H982.224M930.545 824.237H1033.91M827.178 824.052H878.865M827.178 824.052V875.539M827.178 824.052H930.545M827.178 824.052V927.026M878.865 824.052V875.539M878.865 824.052H930.545M827.178 875.539H878.865M827.178 875.539V927.026M930.545 824.052V875.539M930.545 824.052H982.224M930.545 824.052V927.026M930.545 824.052H1033.91M827.178 927.026H878.865M827.178 927.026V978.512H878.865M827.178 927.026H930.545M827.178 927.026V1030H930.545M878.865 875.539V927.026M878.865 875.539H930.545M878.865 927.026V978.512M878.865 927.026H930.545M930.545 875.539V927.026M930.545 875.539H982.224M878.865 978.512H930.545M930.545 927.026V978.512M930.545 927.026H982.224M930.545 927.026V1030M930.545 927.026H1033.91M930.545 1030H1033.91M930.545 978.512H982.224M982.224 52.4869V103.974M982.224 52.4869H1033.91M982.224 52.4869V1M930.545 1H982.224M930.545 1H1033.91M982.224 103.974V155.461M982.224 103.974H1033.91M1033.91 103.974V52.4869M1033.91 103.974V155.461M1033.91 103.974H1085.59M1033.91 103.974V1M1033.91 103.974V206.948M1033.91 103.974H1137.28M982.224 155.461H1033.91M982.224 155.276V206.763M982.224 155.276H1033.91M982.224 206.763V258.25M982.224 206.763H1033.91M1033.91 206.763V155.276M1033.91 206.763V258.25M1033.91 206.763H1085.59M1033.91 206.763V309.737M1033.91 206.763H1137.28V309.737M982.224 258.25V309.737M982.224 258.25H1033.91M982.224 309.737V361.224M982.224 309.737H1033.91M1033.91 309.737V258.25M1033.91 309.737V361.224M1033.91 309.737H1085.59M1033.91 309.737V412.711M1033.91 309.737H1137.28M982.224 361.224H1033.91M982.224 361.039V412.526M982.224 361.039H1033.91M982.224 412.526V464.013M982.224 412.526H1033.91M1033.91 412.526V361.039M1033.91 412.526V464.013M1033.91 412.526H1085.59M1033.91 412.526V515.5M1033.91 412.526H1137.28V515.5M982.224 464.013V515.5M982.224 464.013H1033.91M982.224 515.5V566.987M982.224 515.5H1033.91M1033.91 515.5V464.013M1033.91 515.5V566.987M1033.91 515.5H1085.59M1033.91 515.5V618.474M1033.91 515.5H1137.28M982.224 566.987V618.474M982.224 566.987H1033.91M982.224 618.474H1033.91M1033.91 618.474V566.987M1033.91 618.474H1085.59V566.987M1033.91 618.474H1137.28V515.5M982.224 618.289V669.776M982.224 618.289H1033.91M1033.91 618.289V669.776M1033.91 618.289H1085.59V669.776M1033.91 618.289V721.263M1033.91 618.289H1137.28V721.263M982.224 669.776V721.263M982.224 669.776H1033.91M982.224 721.263V772.75M982.224 721.263H1033.91M1033.91 721.263V669.776M1033.91 721.263V772.75M1033.91 721.263H1085.59M1033.91 721.263V824.237M1033.91 721.263H1137.28M982.224 772.75V824.237M982.224 772.75H1033.91M982.224 824.237H1033.91M1033.91 824.237V772.75M1033.91 824.237H1085.59V772.75M1033.91 824.237H1137.28V721.263M982.224 824.052V875.539M982.224 824.052H1033.91M1033.91 824.052V875.539M1033.91 824.052H1085.59V875.539M1033.91 824.052V927.026M1033.91 824.052H1137.28V927.026M982.224 875.539V927.026M982.224 875.539H1033.91M982.224 927.026V978.512M982.224 927.026H1033.91M1033.91 927.026V875.539M1033.91 927.026V978.512M1033.91 927.026H1085.59M1033.91 927.026V1030M1033.91 927.026H1137.28M982.224 978.512H1033.91M1033.91 52.4869H1085.59M1033.91 52.4869V1M982.224 1H1033.91M1033.91 155.461H1085.59V103.974M1033.91 155.276H1085.59V206.763M1033.91 258.25H1085.59M1033.91 361.224H1085.59V309.737M1033.91 361.039H1085.59V412.526M1033.91 464.013H1085.59M1033.91 566.987H1085.59M1033.91 669.776H1085.59M1033.91 772.75H1085.59M1033.91 875.539H1085.59M1033.91 978.512H1085.59V927.026M1085.59 52.4869V103.974M1085.59 52.4869V1H1033.91M1033.91 1H1137.28V103.974M1033.91 206.948H1137.28V103.974M1085.59 206.763V258.25M1137.28 309.737V412.711H1033.91M1085.59 258.25V309.737M1085.59 412.526V464.013M1085.59 464.013V515.5M1085.59 515.5V566.987M1085.59 669.776V721.263M1085.59 721.263V772.75M1085.59 875.539V927.026M1137.28 927.026V1030H1033.91M1085.41 52.4869H1137.09M1085.41 52.4869V103.974M1085.41 52.4869V1H1137.09M1137.09 52.4869V103.974M1137.09 52.4869H1188.78M1137.09 52.4869V1M1085.41 103.974H1137.09M1085.41 103.974V155.461H1137.09M1137.09 1V103.974M1137.09 1H1188.78M1137.09 1H1240.46M1137.09 103.974V155.461M1137.09 103.974H1188.78M1137.09 103.974H1240.46M1137.09 103.974V206.948H1240.46M1188.78 52.4869V103.974M1188.78 52.4869H1240.46M1188.78 52.4869V1M1137.09 155.461H1188.78M1188.78 103.974V155.461M1188.78 103.974H1240.46M1240.46 103.974V52.4869M1240.46 103.974V155.461M1240.46 103.974H1292.13M1240.46 103.974V1M1240.46 103.974V206.948M1240.46 103.974H1343.82M1240.46 206.948H1343.82V103.974M1188.78 155.461H1240.46M1137.09 155.276H1085.41V206.763M1137.09 155.276V206.763M1137.09 155.276H1188.78M1085.41 206.763H1137.09M1085.41 206.763V258.25M1137.09 206.763V258.25M1137.09 206.763H1188.78M1137.09 206.763H1240.46M1137.09 206.763V309.737M1188.78 155.276V206.763M1188.78 155.276H1240.46M1137.09 258.25H1085.41M1137.09 258.25V309.737M1137.09 258.25H1188.78M1188.78 206.763V258.25M1188.78 206.763H1240.46M1240.46 206.763V155.276M1240.46 206.763V258.25M1240.46 206.763H1292.13M1240.46 206.763V309.737M1240.46 206.763H1343.82V309.737M1137.09 309.737H1085.41M1137.09 309.737V361.224M1137.09 309.737H1188.78M1137.09 309.737H1240.46M1137.09 309.737V412.711H1240.46M1085.41 258.25V309.737M1188.78 258.25V309.737M1188.78 258.25H1240.46M1085.41 309.737V361.224H1137.09M1137.09 361.224H1188.78M1188.78 309.737V361.224M1188.78 309.737H1240.46M1240.46 309.737V258.25M1240.46 309.737V361.224M1240.46 309.737H1292.13M1240.46 309.737V412.711M1240.46 309.737H1343.82M1240.46 412.711H1343.82V309.737M1188.78 361.224H1240.46M1137.09 361.039H1085.41V412.526M1137.09 361.039V412.526M1137.09 361.039H1188.78M1085.41 412.526H1137.09M1085.41 412.526V464.013M1137.09 412.526V464.013M1137.09 412.526H1188.78M1137.09 412.526H1240.46M1137.09 412.526V515.5M1188.78 361.039V412.526M1188.78 361.039H1240.46M1137.09 464.013H1085.41M1137.09 464.013V515.5M1137.09 464.013H1188.78M1188.78 412.526V464.013M1188.78 412.526H1240.46M1240.46 412.526V361.039M1240.46 412.526V464.013M1240.46 412.526H1292.13M1240.46 412.526V515.5M1240.46 412.526H1343.82V515.5M1137.09 515.5H1085.41M1137.09 515.5V566.987M1137.09 515.5H1188.78M1137.09 515.5H1240.46M1137.09 515.5V618.474M1085.41 464.013V515.5M1188.78 464.013V515.5M1188.78 464.013H1240.46M1085.41 515.5V566.987M1137.09 566.987H1085.41M1137.09 566.987V618.474M1137.09 566.987H1188.78M1188.78 515.5V566.987M1188.78 515.5H1240.46M1240.46 515.5V464.013M1240.46 515.5V566.987M1240.46 515.5H1292.13M1240.46 515.5V618.474M1240.46 515.5H1343.82M1137.09 618.474H1085.41V566.987M1137.09 618.474H1188.78M1137.09 618.474H1240.46M1188.78 566.987V618.474M1188.78 566.987H1240.46M1188.78 618.474H1240.46M1240.46 618.474V566.987M1240.46 618.474H1292.13V566.987M1240.46 618.474H1343.82V515.5M1137.09 618.289H1085.41V669.776M1137.09 618.289V669.776M1137.09 618.289H1188.78M1137.09 618.289H1240.46M1137.09 618.289V721.263M1085.41 669.776H1137.09M1085.41 669.776V721.263M1137.09 669.776V721.263M1137.09 669.776H1188.78M1188.78 618.289V669.776M1188.78 618.289H1240.46M1240.46 618.289V669.776M1240.46 618.289H1292.13V669.776M1240.46 618.289V721.263M1240.46 618.289H1343.82V721.263M1137.09 721.263H1085.41M1137.09 721.263V772.75M1137.09 721.263H1188.78M1137.09 721.263H1240.46M1137.09 721.263V824.237M1188.78 669.776V721.263M1188.78 669.776H1240.46M1085.41 721.263V772.75M1137.09 772.75H1085.41M1137.09 772.75V824.237M1137.09 772.75H1188.78M1188.78 721.263V772.75M1188.78 721.263H1240.46M1240.46 721.263V669.776M1240.46 721.263V772.75M1240.46 721.263H1292.13M1240.46 721.263V824.237M1240.46 721.263H1343.82M1137.09 824.237H1085.41V772.75M1137.09 824.237H1188.78M1137.09 824.237H1240.46M1188.78 772.75V824.237M1188.78 772.75H1240.46M1188.78 824.237H1240.46M1240.46 824.237V772.75M1240.46 824.237H1292.13V772.75M1240.46 824.237H1343.82V721.263M1137.09 824.052H1085.41V875.539M1137.09 824.052V875.539M1137.09 824.052H1188.78M1137.09 824.052H1240.46M1137.09 824.052V927.026M1085.41 875.539H1137.09M1085.41 875.539V927.026M1137.09 875.539V927.026M1137.09 875.539H1188.78M1188.78 824.052V875.539M1188.78 824.052H1240.46M1240.46 824.052V875.539M1240.46 824.052H1292.13V875.539M1240.46 824.052V927.026M1240.46 824.052H1343.82V927.026M1137.09 927.026H1085.41M1137.09 927.026V978.512M1137.09 927.026H1188.78M1137.09 927.026H1240.46M1137.09 927.026V1030H1240.46M1188.78 875.539V927.026M1188.78 875.539H1240.46M1085.41 927.026V978.512H1137.09M1137.09 978.512H1188.78M1188.78 927.026V978.512M1188.78 927.026H1240.46M1240.46 927.026V875.539M1240.46 927.026V978.512M1240.46 927.026H1292.13M1240.46 927.026V1030M1240.46 927.026H1343.82M1240.46 1030H1343.82V927.026M1188.78 978.512H1240.46M1240.46 52.4869H1292.13M1240.46 52.4869V1M1188.78 1H1240.46M1240.46 155.461H1292.13V103.974M1240.46 155.276H1292.13V206.763M1240.46 258.25H1292.13M1240.46 361.224H1292.13V309.737M1240.46 361.039H1292.13V412.526M1240.46 464.013H1292.13M1240.46 566.987H1292.13M1240.46 669.776H1292.13M1240.46 772.75H1292.13M1240.46 875.539H1292.13M1240.46 978.512H1292.13V927.026M1292.13 52.4869V103.974M1292.13 52.4869V1H1240.46M1240.46 1H1343.82V103.974M1292.13 206.763V258.25M1292.13 258.25V309.737M1292.13 412.526V464.013M1292.13 464.013V515.5M1292.13 515.5V566.987M1292.13 669.776V721.263M1292.13 721.263V772.75M1292.13 875.539V927.026M1291.95 52.4869H1343.63M1291.95 52.4869V103.974M1291.95 52.4869V1H1343.63M1343.63 52.4869V103.974M1343.63 52.4869H1395.32M1343.63 52.4869V1M1291.95 103.974H1343.63M1291.95 103.974V155.461H1343.63M1343.63 1V103.974M1343.63 1H1395.32M1343.63 1H1447M1343.63 103.974V155.461M1343.63 103.974H1395.32M1343.63 103.974H1447M1343.63 103.974V206.948H1447V103.974M1395.32 52.4869V103.974M1395.32 52.4869H1447M1395.32 52.4869V1M1343.63 155.461H1395.32M1395.32 103.974V155.461M1395.32 103.974H1447M1447 103.974V155.461H1395.32M1447 103.974V52.4869M1447 103.974V1M1343.63 155.276H1291.95V206.763M1343.63 155.276V206.763M1343.63 155.276H1395.32M1291.95 206.763H1343.63M1291.95 206.763V258.25M1343.63 206.763V258.25M1343.63 206.763H1395.32M1343.63 206.763H1447M1343.63 206.763V309.737M1395.32 155.276V206.763M1395.32 155.276H1447V206.763M1343.63 258.25H1291.95M1343.63 258.25V309.737M1343.63 258.25H1395.32M1395.32 206.763V258.25M1395.32 206.763H1447M1447 206.763V258.25M1447 206.763V309.737M1343.63 309.737H1291.95M1343.63 309.737V361.224M1343.63 309.737H1395.32M1343.63 309.737H1447M1343.63 309.737V412.711H1447V309.737M1291.95 258.25V309.737M1395.32 258.25V309.737M1395.32 258.25H1447M1291.95 309.737V361.224H1343.63M1343.63 361.224H1395.32M1395.32 309.737V361.224M1395.32 309.737H1447M1447 309.737V361.224H1395.32M1447 309.737V258.25M1343.63 361.039H1291.95V412.526M1343.63 361.039V412.526M1343.63 361.039H1395.32M1291.95 412.526H1343.63M1291.95 412.526V464.013M1343.63 412.526V464.013M1343.63 412.526H1395.32M1343.63 412.526H1447M1343.63 412.526V515.5M1395.32 361.039V412.526M1395.32 361.039H1447V412.526M1343.63 464.013H1291.95M1343.63 464.013V515.5M1343.63 464.013H1395.32M1395.32 412.526V464.013M1395.32 412.526H1447M1447 412.526V464.013M1447 412.526V515.5M1343.63 515.5H1291.95M1343.63 515.5V566.987M1343.63 515.5H1395.32M1343.63 515.5H1447M1343.63 515.5V618.474M1291.95 464.013V515.5M1395.32 464.013V515.5M1395.32 464.013H1447M1291.95 515.5V566.987M1343.63 566.987H1291.95M1343.63 566.987V618.474M1343.63 566.987H1395.32M1395.32 515.5V566.987M1395.32 515.5H1447M1447 515.5V464.013M1447 515.5V566.987M1447 515.5V618.474M1343.63 618.474H1291.95V566.987M1343.63 618.474H1395.32M1343.63 618.474H1447M1395.32 566.987V618.474M1395.32 566.987H1447M1395.32 618.474H1447M1447 618.474V566.987M1343.63 618.289H1291.95V669.776M1343.63 618.289V669.776M1343.63 618.289H1395.32M1343.63 618.289H1447M1343.63 618.289V721.263M1291.95 669.776H1343.63M1291.95 669.776V721.263M1343.63 669.776V721.263M1343.63 669.776H1395.32M1395.32 618.289V669.776M1395.32 618.289H1447M1447 618.289V669.776M1447 618.289V721.263M1343.63 721.263H1291.95M1343.63 721.263V772.75M1343.63 721.263H1395.32M1343.63 721.263H1447M1343.63 721.263V824.237M1395.32 669.776V721.263M1395.32 669.776H1447M1291.95 721.263V772.75M1343.63 772.75H1291.95M1343.63 772.75V824.237M1343.63 772.75H1395.32M1395.32 721.263V772.75M1395.32 721.263H1447M1447 721.263V669.776M1447 721.263V772.75M1447 721.263V824.237M1343.63 824.237H1291.95V772.75M1343.63 824.237H1395.32M1343.63 824.237H1447M1395.32 772.75V824.237M1395.32 772.75H1447M1395.32 824.237H1447M1447 824.237V772.75M1343.63 824.052H1291.95V875.539M1343.63 824.052V875.539M1343.63 824.052H1395.32M1343.63 824.052H1447M1343.63 824.052V927.026M1291.95 875.539H1343.63M1291.95 875.539V927.026M1343.63 875.539V927.026M1343.63 875.539H1395.32M1395.32 824.052V875.539M1395.32 824.052H1447M1447 824.052V875.539M1447 824.052V927.026M1343.63 927.026H1291.95M1343.63 927.026V978.512M1343.63 927.026H1395.32M1343.63 927.026H1447M1343.63 927.026V1030H1447V927.026M1395.32 875.539V927.026M1395.32 875.539H1447M1291.95 927.026V978.512H1343.63M1343.63 978.512H1395.32M1395.32 927.026V978.512M1395.32 927.026H1447M1447 927.026V978.512H1395.32M1447 927.026V875.539M1447 52.4869V1M1395.32 1H1447" stroke="url(#paint0_radial_1_8)" stroke-opacity="0.8" stroke-miterlimit="10" stroke-linecap="round"/>
<defs>
<radialGradient id="paint0_radial_1_8" cx="0" cy="0" r="1" gradientUnits="userSpaceOnUse" gradientTransform="translate(695 565.5) rotate(47.5865) scale(344.712 484.406)">
<stop stop-color="white"/>
<stop offset="1" stop-color="white" stop-opacity="0"/>
</radialGradient>
</defs>
</svg>
