<svg width="16" height="14" viewBox="0 0 16 14" fill="none" xmlns="http://www.w3.org/2000/svg">
<path fill-rule="evenodd" clip-rule="evenodd" d="M11.496 0.0179468C10.8115 0.106368 10.1988 0.341369 9.63219 0.73278C9.3364 0.937068 8.89473 1.37146 8.66361 1.68533C8.21317 2.29711 7.87897 3.23993 7.87897 3.89891V4.08831L6.60844 5.94432L5.33791 7.80031H5.0482C4.54761 7.80031 4.1034 7.90503 3.67223 8.12466L3.46565 8.22989L1.76927 7.53082C0.836269 7.14632 0.0551925 6.82469 0.033542 6.81611C0.00216128 6.80365 -0.00415866 7.19708 0.00225514 8.76356L0.0103271 10.7266L1.02527 11.1449L2.04025 11.5633L2.10833 11.7936C2.57816 13.3831 4.22113 14.3203 5.79986 13.8994C6.92059 13.6006 7.81665 12.602 8.00753 11.4391L8.04667 11.2007L10.0084 9.74068L11.9702 8.28068H12.1732C13.0589 8.28068 14.1167 7.79592 14.8246 7.06556C15.4067 6.46505 15.7677 5.78087 15.9407 4.95007C16.0198 4.57038 16.0198 3.72851 15.9407 3.34882C15.5936 1.68207 14.3616 0.416403 12.7614 0.0826056C12.4036 0.00798707 11.8086 -0.0224368 11.496 0.0179468ZM12.6189 1.45812C13.6347 1.72713 14.4262 2.58767 14.6188 3.63256C14.8906 5.10674 13.9499 6.54576 12.5102 6.85819C12.2404 6.91673 11.6615 6.91552 11.3842 6.85579C10.8459 6.73989 10.3301 6.43959 9.94584 6.0184C9.42529 5.44784 9.19314 4.78393 9.23291 3.97958C9.29651 2.69278 10.2023 1.65984 11.4877 1.40841C11.7846 1.35032 12.2969 1.37283 12.6189 1.45812ZM11.5822 1.94266C11.0454 2.0345 10.5027 2.38579 10.1779 2.85163C9.9036 3.24515 9.78402 3.6388 9.78496 4.14522C9.78606 4.72593 9.97015 5.21188 10.3472 5.6292C10.7552 6.08091 11.2482 6.31931 11.8396 6.35098C13.136 6.42035 14.201 5.33729 14.1277 4.02416C14.053 2.68558 12.8742 1.72162 11.5822 1.94266ZM5.51681 8.68084C6.03467 8.79145 6.58088 9.17976 6.8817 9.65114C7.218 10.1781 7.33067 10.8339 7.18856 11.4371C7.1324 11.6755 6.9367 12.0832 6.77119 12.3068C6.32226 12.9131 5.48959 13.2591 4.7388 13.1514C4.24985 13.0812 3.86049 12.8936 3.50566 12.557C3.31769 12.3788 3.02879 11.9956 3.08235 11.9956C3.09546 11.9956 3.37404 12.1031 3.70142 12.2344C4.38642 12.5093 4.49192 12.5382 4.81411 12.5393C5.29248 12.5408 5.70134 12.3673 6.04916 12.015C6.7635 11.2914 6.76256 10.16 6.04697 9.44794C5.81839 9.22049 5.64853 9.12467 5.02195 8.86972C4.6563 8.72097 4.57367 8.67671 4.63086 8.66025C4.76558 8.6214 5.29636 8.63376 5.51681 8.68084Z" fill="white"/>
</svg>
